<svg width="32px" height="32px" viewBox="0 0 32 32" version="1.1" xmlns="http://www.w3.org/2000/svg" xmlns:xlink="http://www.w3.org/1999/xlink">
  <defs></defs>
  <path d="M 15.495 12.741 L 15.495 15.44 L 17.834 12.741 L 19.009 12.741 L 16.36 16.006 L 19.145 19.445 L 17.985 19.445 L 15.495 16.345 L 15.495 19.434 L 14.447 19.434 L 14.447 12.741 L 15.495 12.741 Z M 25.76 19.347 L 22.5 17.426 L 22.5 12.482 C 22.5 12.327 22.409 12.186 22.266 12.12 L 17.611 9.965 L 17.611 6.338 L 25.76 10.328 L 25.76 19.347 Z M 26.348 9.723 L 17.385 5.333 C 17.258 5.271 17.108 5.278 16.989 5.351 C 16.87 5.424 16.796 5.553 16.796 5.691 L 16.796 10.219 C 16.796 10.373 16.887 10.515 17.03 10.581 L 21.685 12.736 L 21.685 17.653 C 21.685 17.793 21.76 17.924 21.884 17.996 L 25.958 20.397 C 26.022 20.435 26.095 20.455 26.167 20.455 C 26.237 20.455 26.306 20.437 26.368 20.403 C 26.496 20.332 26.575 20.199 26.575 20.055 L 26.575 10.081 C 26.575 9.929 26.487 9.79 26.348 9.723 L 26.348 9.723 Z M 15.977 26.438 L 7.018 21.846 L 7.018 10.318 L 14.352 6.367 L 14.352 9.986 L 10.484 12.134 C 10.356 12.205 10.277 12.338 10.277 12.482 L 10.277 19.687 C 10.277 19.833 10.358 19.968 10.488 20.038 L 15.784 22.902 C 15.907 22.969 16.056 22.969 16.177 22.903 L 21.27 20.156 L 24.159 22.054 L 15.977 26.438 Z M 21.518 19.355 C 21.391 19.272 21.228 19.265 21.095 19.337 L 15.981 22.095 L 11.092 19.451 L 11.092 12.716 L 14.96 10.567 C 15.088 10.497 15.167 10.364 15.167 10.219 L 15.167 5.691 C 15.167 5.549 15.091 5.419 14.967 5.347 C 14.843 5.275 14.69 5.272 14.563 5.34 L 6.414 9.73 C 6.284 9.8 6.203 9.935 6.203 10.081 L 6.203 22.089 C 6.203 22.239 6.287 22.375 6.421 22.444 L 15.792 27.248 C 15.851 27.277 15.917 27.292 15.981 27.292 C 16.048 27.292 16.116 27.276 16.176 27.244 L 25.14 22.44 C 25.264 22.373 25.345 22.248 25.352 22.107 C 25.358 21.967 25.29 21.834 25.172 21.756 L 21.518 19.355 Z" id="Amazon-Elastic-Container-Kubernetes_Icon_32_Squid" style="fill: rgb(202, 84, 26);"></path>
  <path d="M 26.398 1.392 H 27.345 V 4.339 H 30.292 V 5.286 H 27.345 V 8.233 H 26.398 V 5.286 H 23.451 V 4.339 H 26.398 Z" style="fill: rgb(202, 84, 26);" bx:shape="cross 23.451 1.392 6.841 6.841 0.946 0.946 0.5 1@540b8c9f"></path>
</svg>